<svg width="14" height="14" viewBox="0 0 14 14" fill="none" xmlns="http://www.w3.org/2000/svg">
<g clip-path="url(#clip0_403_1652)">
<path d="M11.6667 5.25H6.41667C5.77233 5.25 5.25 5.77233 5.25 6.41667V11.6667C5.25 12.311 5.77233 12.8333 6.41667 12.8333H11.6667C12.311 12.8333 12.8333 12.311 12.8333 11.6667V6.41667C12.8333 5.77233 12.311 5.25 11.6667 5.25Z" stroke="#585585" stroke-linecap="round" stroke-linejoin="round"/>
<path d="M2.9165 8.75033H2.33317C2.02375 8.75033 1.72701 8.62741 1.50821 8.40862C1.28942 8.18982 1.1665 7.89308 1.1665 7.58366V2.33366C1.1665 2.02424 1.28942 1.72749 1.50821 1.5087C1.72701 1.28991 2.02375 1.16699 2.33317 1.16699H7.58317C7.89259 1.16699 8.18934 1.28991 8.40813 1.5087C8.62692 1.72749 8.74984 2.02424 8.74984 2.33366V2.91699" stroke="#585585" stroke-linecap="round" stroke-linejoin="round"/>
</g>
<defs>
<clipPath id="clip0_403_1652">
<rect width="14" height="14" fill="white"/>
</clipPath>
</defs>
</svg>
