<svg width="54" height="54" viewBox="0 0 54 54" fill="none" xmlns="http://www.w3.org/2000/svg">
<path d="M43.605 32.355C44.0478 32.7984 44.3989 33.3246 44.6383 33.9037C44.8776 34.4828 45.0006 35.1034 45 35.73V35.73C45 36.9951 44.4975 38.2084 43.6029 39.1029C42.7084 39.9974 41.4951 40.5 40.23 40.5H13.77C12.5049 40.5 11.2917 39.9974 10.3971 39.1029C9.50255 38.2084 9 36.9951 9 35.73V35.73C8.99945 35.1034 9.12236 34.4828 9.36172 33.9037C9.60108 33.3246 9.9522 32.7984 10.395 32.355L13.5 29.25V20.25C13.5 16.6696 14.9223 13.2358 17.4541 10.7041C19.9858 8.17232 23.4196 6.75 27 6.75V6.75C30.5804 6.75 34.0142 8.17232 36.5459 10.7041C39.0777 13.2358 40.5 16.6696 40.5 20.25V29.25L43.605 32.355ZM33.75 40.5H20.25C20.25 42.2902 20.9612 44.0071 22.227 45.273C23.4929 46.5388 25.2098 47.25 27 47.25C28.7902 47.25 30.5071 46.5388 31.773 45.273C33.0388 44.0071 33.75 42.2902 33.75 40.5Z" stroke="#585585" stroke-width="4" stroke-linecap="round" stroke-linejoin="round"/>
<circle cx="6" cy="8" r="4" fill="#CF5C4C"/>
</svg>
