<svg width="24" height="24" viewBox="0 0 24 24" fill="none" xmlns="http://www.w3.org/2000/svg">
<path d="M19 20.5004C14.4281 19.1704 9.5719 19.1704 5 20.5004" stroke="#585585" stroke-width="2" stroke-linecap="round" stroke-linejoin="round"/>
<path d="M21 15V5C21 4.73478 20.8946 4.48043 20.7071 4.29289C20.5196 4.10536 20.2652 4 20 4H4C3.73478 4 3.48043 4.10536 3.29289 4.29289C3.10536 4.48043 3 4.73478 3 5V15C3 15.2652 3.10536 15.5196 3.29289 15.7071C3.48043 15.8946 3.73478 16 4 16H20C20.2652 16 20.5196 15.8946 20.7071 15.7071C20.8946 15.5196 21 15.2652 21 15ZM10 16V19.58C11.3315 19.48 12.6685 19.48 14 19.58V16H10Z" stroke="#585585" stroke-width="2" stroke-linecap="round" stroke-linejoin="round"/>
</svg>
