<svg width="24" height="24" viewBox="0 0 24 24" fill="none" xmlns="http://www.w3.org/2000/svg">
<path d="M10.47 9.28974L14.71 13.5297L7.24 20.9997H3V16.7597L10.47 9.28974ZM20.41 6.40974L17.59 3.58974C17.497 3.49602 17.3864 3.42162 17.2646 3.37085C17.1427 3.32008 17.012 3.29395 16.88 3.29395C16.748 3.29395 16.6173 3.32008 16.4954 3.37085C16.3736 3.42162 16.263 3.49602 16.17 3.58974L13.29 6.46974L17.53 10.7097L20.41 7.82974C20.5037 7.73678 20.5781 7.62618 20.6289 7.50432C20.6797 7.38246 20.7058 7.25176 20.7058 7.11974C20.7058 6.98773 20.6797 6.85703 20.6289 6.73517C20.5781 6.61331 20.5037 6.50271 20.41 6.40974V6.40974Z" stroke="#585585" stroke-width="2" stroke-linecap="round" stroke-linejoin="round"/>
</svg>
