<svg width="48" height="48" viewBox="0 0 48 48" fill="none" xmlns="http://www.w3.org/2000/svg">
<path d="M14 40H8C7.46957 40 6.96086 39.7893 6.58579 39.4142C6.21071 39.0391 6 38.5304 6 38V16" stroke="#585585" stroke-width="3" stroke-linecap="round" stroke-linejoin="round"/>
<path d="M40 8H16C15.4696 8 14.9609 8.21071 14.5858 8.58579C14.2107 8.96086 14 9.46957 14 10V30C14 30.5304 14.2107 31.0391 14.5858 31.4142C14.9609 31.7893 15.4696 32 16 32H22V38L32 32H40C40.5304 32 41.0391 31.7893 41.4142 31.4142C41.7893 31.0391 42 30.5304 42 30V10C42 9.46957 41.7893 8.96086 41.4142 8.58579C41.0391 8.21071 40.5304 8 40 8V8Z" stroke="#585585" stroke-width="3" stroke-linecap="round" stroke-linejoin="round"/>
</svg>
