<svg width="18" height="18" viewBox="0 0 18 18" fill="none" xmlns="http://www.w3.org/2000/svg">
<path d="M5.25 12V15C5.25 15.1989 5.32902 15.3897 5.46967 15.5303C5.61032 15.671 5.80109 15.75 6 15.75H15C15.1989 15.75 15.3897 15.671 15.5303 15.5303C15.671 15.3897 15.75 15.1989 15.75 15V3C15.75 2.80109 15.671 2.61032 15.5303 2.46967C15.3897 2.32902 15.1989 2.25 15 2.25H6C5.80109 2.25 5.61032 2.32902 5.46967 2.46967C5.32902 2.61032 5.25 2.80109 5.25 3V7.5" stroke="#585585" stroke-width="1.6" stroke-linecap="round" stroke-linejoin="round"/>
<path d="M12.7498 4.5C12.7498 4.69891 12.6708 4.88968 12.5302 5.03033C12.3895 5.17098 12.1987 5.25 11.9998 5.25H8.99982C8.80091 5.25 8.61015 5.17098 8.46949 5.03033C8.32884 4.88968 8.24982 4.69891 8.24982 4.5V2.25H12.7498V4.5ZM2.46732 8.0175L3.51732 6.9675C3.65752 6.83008 3.84601 6.75311 4.04232 6.75311C4.23864 6.75311 4.42713 6.83008 4.56732 6.9675L8.24982 10.65V12.75H6.14982L2.46732 9.0675C2.3299 8.9273 2.25293 8.73882 2.25293 8.5425C2.25293 8.34619 2.3299 8.1577 2.46732 8.0175V8.0175Z" stroke="#585585" stroke-width="1.6" stroke-linecap="round" stroke-linejoin="round"/>
</svg>
