<svg width="16" height="16" viewBox="0 0 16 16" fill="none" xmlns="http://www.w3.org/2000/svg">
<path d="M12.5482 4.11837L12.5508 4.12098C13.0312 4.60328 13.3009 5.25627 13.3009 5.93699C13.3009 6.61771 13.0312 7.2707 12.5508 7.753L12.5498 7.75397L8.00007 12.3398L3.45033 7.75397L3.45004 7.75369C3.09326 7.39449 2.85035 6.93804 2.75174 6.44146C2.65312 5.94488 2.70317 5.43024 2.89562 4.96197C3.08808 4.4937 3.41439 4.09261 3.8337 3.80889C4.25156 3.52616 4.74329 3.37252 5.24772 3.36702C5.9224 3.37248 6.56789 3.6434 7.0444 4.12127L7.04439 4.12128L7.04771 4.12456C7.1833 4.25873 7.30146 4.40943 7.39941 4.57312C7.52582 4.78435 7.7539 4.91366 8.00007 4.91366C8.24624 4.91366 8.47432 4.78435 8.60073 4.57312C8.69868 4.40943 8.81685 4.25873 8.95243 4.12456L8.95247 4.1246L8.95862 4.11837C9.19308 3.88048 9.47249 3.69158 9.78061 3.56264C10.0887 3.43371 10.4194 3.36731 10.7534 3.36731C11.0874 3.36731 11.4181 3.43371 11.7262 3.56264C12.0343 3.69158 12.3137 3.88048 12.5482 4.11837L12.5482 4.11837Z" fill="#585585" stroke="#585585" stroke-width="1.4" stroke-linecap="round" stroke-linejoin="round"/>
</svg>
