<svg width="24" height="24" viewBox="0 0 24 24" fill="none" xmlns="http://www.w3.org/2000/svg">
<path d="M19.5699 5.44C20.4865 6.36024 21.0011 7.60616 21.0011 8.905C21.0011 10.2038 20.4865 11.4498 19.5699 12.37L11.9999 20L4.42986 12.37C3.74911 11.6846 3.28564 10.8137 3.09747 9.86623C2.90931 8.91874 3.00481 7.9368 3.37202 7.04333C3.73923 6.14985 4.36183 5.38455 5.16189 4.84321C5.96195 4.30188 6.90391 4.00857 7.86986 4C9.16151 4.00784 10.3978 4.52536 11.3099 5.44C11.5759 5.70322 11.8077 5.99888 11.9999 6.32C12.192 5.99888 12.4239 5.70322 12.6899 5.44C13.1392 4.98405 13.6748 4.62199 14.2653 4.37486C14.8559 4.12774 15.4897 4.00047 16.1299 4.00047C16.77 4.00047 17.4038 4.12774 17.9944 4.37486C18.5849 4.62199 19.1205 4.98405 19.5699 5.44V5.44Z" stroke="#585585" stroke-width="2" stroke-linecap="round" stroke-linejoin="round"/>
</svg>
