<svg width="40" height="46" viewBox="0 0 40 46" fill="none" xmlns="http://www.w3.org/2000/svg">
<path d="M36.605 28.355C37.0478 28.7984 37.3989 29.3246 37.6383 29.9037C37.8776 30.4828 38.0006 31.1034 38 31.73V31.73C38 32.9951 37.4975 34.2084 36.6029 35.1029C35.7084 35.9974 34.4951 36.5 33.23 36.5H6.77C5.50492 36.5 4.29165 35.9974 3.3971 35.1029C2.50255 34.2084 2 32.9951 2 31.73V31.73C1.99945 31.1034 2.12236 30.4828 2.36172 29.9037C2.60108 29.3246 2.9522 28.7984 3.395 28.355L6.5 25.25V16.25C6.5 12.6696 7.92232 9.2358 10.4541 6.70406C12.9858 4.17232 16.4196 2.75 20 2.75V2.75C23.5804 2.75 27.0142 4.17232 29.5459 6.70406C32.0777 9.2358 33.5 12.6696 33.5 16.25V25.25L36.605 28.355ZM26.75 36.5H13.25C13.25 38.2902 13.9612 40.0071 15.227 41.273C16.4929 42.5388 18.2098 43.25 20 43.25C21.7902 43.25 23.5071 42.5388 24.773 41.273C26.0388 40.0071 26.75 38.2902 26.75 36.5Z" stroke="#585585" stroke-width="4" stroke-linecap="round" stroke-linejoin="round"/>
</svg>
