<svg width="727" height="551" viewBox="0 0 727 551" fill="none" xmlns="http://www.w3.org/2000/svg">
<rect x="0.623047" width="726.377" height="550.735" rx="30" fill="#F9F9FF"/>
<path d="M360.184 305.358C342.166 305.358 324.147 305.358 306.129 305.358C305.249 305.358 304.358 305.358 303.474 305.267C298.963 304.848 297.149 301.819 299.073 297.725C300.742 294.19 302.563 290.746 304.331 287.249C312.677 270.784 321.024 254.321 329.37 237.861C329.628 237.358 329.898 236.855 330.197 236.375C332.299 233.018 335.714 232.546 338.403 235.441C340.3 237.468 341.905 239.744 343.597 241.94C352.196 253.138 360.796 264.341 369.395 275.549C373.151 280.426 377.882 280.69 382.294 276.305C384.483 274.127 386.623 271.893 388.838 269.734C392.833 265.84 397.367 266.075 400.63 270.615C407.178 279.726 413.563 288.958 419.978 298.16C420.479 298.882 420.863 299.678 421.116 300.519C421.738 302.632 420.858 304.333 418.707 304.897C417.358 305.218 415.974 305.367 414.587 305.339C396.463 305.369 378.328 305.376 360.184 305.358Z" fill="#D4D2E3"/>
<path d="M400.592 215.136C400.587 218.651 399.535 222.085 397.57 225.003C395.604 227.921 392.814 230.192 389.551 231.527C386.289 232.863 382.703 233.203 379.246 232.505C375.79 231.807 372.619 230.102 370.136 227.606C367.653 225.11 365.97 221.936 365.3 218.486C364.629 215.035 365.002 211.464 366.371 208.225C367.74 204.987 370.043 202.226 372.989 200.293C375.934 198.36 379.389 197.342 382.916 197.368C387.612 197.428 392.097 199.324 395.403 202.647C398.71 205.971 400.573 210.456 400.592 215.136Z" fill="#D4D2E3"/>
</svg>
