<svg width="163" height="31" viewBox="0 0 163 31" fill="none" xmlns="http://www.w3.org/2000/svg">
<g clip-path="url(#clip0_439_1079)">
<path d="M5.64561 28.1607H25.6008C27.0088 28.1607 28.1608 27.0087 28.1608 25.6007V5.64549C28.1608 4.50629 26.7784 3.93029 25.972 4.73669L4.74961 25.9719C3.94321 26.7783 4.50641 28.1607 5.64561 28.1607Z" fill="#585585"/>
</g>
<path d="M66.8045 30.4244H61.996L47.5284 8.52563V30.4244H42.72V1.05728H47.5284L61.996 22.9138V1.05728H66.8045V30.4244Z" fill="#585585"/>
<path d="M127.795 1.09947L116.786 30.4244H111.218L100.167 1.09947H105.313L114.002 25.4877L122.733 1.09947H127.795Z" fill="#585585"/>
<path d="M136.625 1.09947V30.4244H131.816V1.09947H136.625Z" fill="#585585"/>
<path d="M152.597 30.7197C150.628 30.7197 148.857 30.3822 147.282 29.7071C145.707 29.0038 144.47 28.0193 143.57 26.7535C142.671 25.4877 142.221 24.0109 142.221 22.3231H147.367C147.479 23.5889 147.971 24.6297 148.843 25.4455C149.743 26.2612 150.994 26.6691 152.597 26.6691C154.256 26.6691 155.549 26.2753 156.477 25.4877C157.405 24.6719 157.869 23.6311 157.869 22.3653C157.869 21.3808 157.574 20.5791 156.984 19.9602C156.421 19.3414 155.704 18.8632 154.832 18.5256C153.989 18.1881 152.808 17.8224 151.289 17.4286C149.377 16.9223 147.816 16.4159 146.607 15.9096C145.426 15.3751 144.414 14.5594 143.57 13.4623C142.727 12.3653 142.305 10.9026 142.305 9.07416C142.305 7.38639 142.727 5.9096 143.57 4.64378C144.414 3.37796 145.595 2.40749 147.113 1.73239C148.632 1.05728 150.389 0.719727 152.386 0.719727C155.226 0.719727 157.546 1.43703 159.346 2.87162C161.173 4.2781 162.186 6.21902 162.383 8.69441H157.068C156.984 7.62549 156.477 6.71129 155.549 5.95179C154.621 5.1923 153.398 4.81255 151.88 4.81255C150.502 4.81255 149.377 5.16417 148.505 5.86741C147.634 6.57064 147.198 7.5833 147.198 8.90538C147.198 9.80552 147.465 10.551 147.999 11.1417C148.562 11.7043 149.265 12.1543 150.108 12.4919C150.952 12.8294 152.105 13.1951 153.567 13.5889C155.507 14.1234 157.082 14.6578 158.291 15.1923C159.528 15.7268 160.569 16.5566 161.412 17.6818C162.284 18.7788 162.72 20.2556 162.72 22.1121C162.72 23.603 162.312 25.0095 161.497 26.3315C160.709 27.6536 159.542 28.7225 157.996 29.5383C156.477 30.3259 154.678 30.7197 152.597 30.7197Z" fill="#585585"/>
<path d="M71.389 30.4242H76.4084L84.6756 6.87988L92.9006 30.4242H97.9621L87.4594 1.05709H81.8917L71.389 30.4242Z" fill="#585585"/>
<defs>
<clipPath id="clip0_439_1079">
<rect width="30.72" height="30.72" fill="white"/>
</clipPath>
</defs>
</svg>
