<svg width="131" height="24" viewBox="0 0 131 24" fill="none" xmlns="http://www.w3.org/2000/svg">
<g clip-path="url(#clip0_32_573)">
<path d="M4.41054 22.0003H20.0005C21.1005 22.0003 22.0005 21.1003 22.0005 20.0003V4.41026C22.0005 3.52026 20.9205 3.07026 20.2905 3.70026L3.71054 20.2903C3.08054 20.9203 3.52054 22.0003 4.41054 22.0003Z" fill="white"/>
</g>
<path d="M57.272 23.152H53.624L42.648 6.54401V23.152H39V0.880023H42.648L53.624 17.456V0.880023H57.272V23.152Z" fill="white"/>
<path d="M74.4464 15.632H67.1824L64.5584 23.152H60.7505L68.7184 0.880023H72.9424L80.9104 23.152H77.0704L74.4464 15.632ZM74.4464 15.632L70.8304 5.29601L67.1824 15.632H74.4464Z" fill="white"/>
<path d="M103.543 0.912023L95.1909 23.152H90.9669L82.5829 0.912023H86.4869L93.0789 19.408L99.7029 0.912023H103.543Z" fill="white"/>
<path d="M110.242 0.912023V23.152H106.594V0.912023H110.242Z" fill="white"/>
<path d="M122.359 23.376C120.866 23.376 119.522 23.12 118.327 22.608C117.132 22.0746 116.194 21.328 115.511 20.368C114.828 19.408 114.487 18.288 114.487 17.008H118.391C118.476 17.968 118.85 18.7573 119.511 19.376C120.194 19.9946 121.143 20.304 122.359 20.304C123.618 20.304 124.599 20.0053 125.303 19.408C126.007 18.7893 126.359 18 126.359 17.04C126.359 16.2933 126.135 15.6853 125.687 15.216C125.26 14.7467 124.716 14.384 124.055 14.128C123.415 13.872 122.519 13.5947 121.367 13.296C119.916 12.912 118.732 12.528 117.815 12.144C116.919 11.7387 116.151 11.12 115.511 10.288C114.871 9.45601 114.551 8.34667 114.551 6.96001C114.551 5.68001 114.871 4.56002 115.511 3.60002C116.151 2.64002 117.047 1.90402 118.199 1.39202C119.351 0.880023 120.684 0.624023 122.199 0.624023C124.354 0.624023 126.114 1.16802 127.479 2.25602C128.866 3.32268 129.634 4.79468 129.783 6.67201H125.751C125.687 5.86135 125.303 5.16801 124.599 4.59202C123.895 4.01602 122.967 3.72802 121.815 3.72802C120.77 3.72802 119.916 3.99468 119.255 4.52802C118.594 5.06135 118.263 5.82935 118.263 6.83201C118.263 7.51468 118.466 8.08001 118.871 8.52801C119.298 8.95467 119.831 9.29601 120.471 9.552C121.111 9.808 121.986 10.0853 123.095 10.384C124.567 10.7893 125.762 11.1947 126.679 11.6C127.618 12.0053 128.407 12.6347 129.047 13.488C129.708 14.32 130.039 15.44 130.039 16.848C130.039 17.9787 129.73 19.0453 129.111 20.048C128.514 21.0506 127.628 21.8613 126.455 22.48C125.303 23.0773 123.938 23.376 122.359 23.376Z" fill="white"/>
<defs>
<clipPath id="clip0_32_573">
<rect width="24" height="24" fill="white"/>
</clipPath>
</defs>
</svg>
