<svg width="177" height="32" viewBox="0 0 177 32" fill="none" xmlns="http://www.w3.org/2000/svg">
<path d="M5.64463 29.4405H25.5998C27.0078 29.4405 28.1598 28.2885 28.1598 26.8805V6.92527C28.1598 5.78607 26.7774 5.21007 25.971 6.01647L4.74863 27.2517C3.94223 28.0581 4.50543 29.4405 5.64463 29.4405Z" fill="white"/>
<path d="M66.8053 29.7046H61.9968L47.5292 7.80591V29.7046H42.7207V0.337553H47.5292L61.9968 22.1941V0.337553H66.8053V29.7046Z" fill="white"/>
<path d="M127.796 0.379747L116.787 29.7046H111.219L100.168 0.379747H105.314L114.003 24.7679L122.734 0.379747H127.796Z" fill="white"/>
<path d="M136.625 0.379747V29.7046H131.817V0.379747H136.625Z" fill="white"/>
<path d="M152.598 30C150.629 30 148.858 29.6624 147.283 28.9873C145.708 28.2841 144.471 27.2996 143.571 26.0338C142.671 24.7679 142.221 23.2911 142.221 21.6034H147.367C147.48 22.8692 147.972 23.91 148.844 24.7257C149.743 25.5415 150.995 25.9494 152.598 25.9494C154.257 25.9494 155.55 25.5556 156.478 24.7679C157.406 23.9522 157.87 22.9114 157.87 21.6456C157.87 20.661 157.575 19.8594 156.984 19.2405C156.422 18.6217 155.705 18.1435 154.833 17.8059C153.99 17.4684 152.808 17.1027 151.29 16.7089C149.378 16.2025 147.817 15.6962 146.608 15.1899C145.427 14.6554 144.415 13.8397 143.571 12.7426C142.728 11.6456 142.306 10.1828 142.306 8.35443C142.306 6.66667 142.728 5.18987 143.571 3.92405C144.415 2.65823 145.596 1.68777 147.114 1.01266C148.633 0.337553 150.39 0 152.387 0C155.227 0 157.547 0.7173 159.346 2.1519C161.174 3.55837 162.186 5.4993 162.383 7.97468H157.069C156.984 6.90577 156.478 5.99156 155.55 5.23207C154.622 4.47257 153.399 4.09283 151.881 4.09283C150.503 4.09283 149.378 4.44444 148.506 5.14768C147.634 5.85091 147.199 6.86357 147.199 8.18565C147.199 9.08579 147.466 9.83122 148 10.4219C148.562 10.9845 149.265 11.4346 150.109 11.7722C150.953 12.1097 152.105 12.4754 153.568 12.8692C155.508 13.4037 157.083 13.9381 158.292 14.4726C159.529 15.007 160.57 15.8368 161.413 16.962C162.285 18.0591 162.721 19.5359 162.721 21.3924C162.721 22.8833 162.313 24.2897 161.497 25.6118C160.71 26.9339 159.543 28.0028 157.997 28.8186C156.478 29.6062 154.678 30 152.598 30Z" fill="white"/>
<path d="M71.3897 29.7045H76.4091L84.6763 6.16015L92.9013 29.7045H97.9629L87.4601 0.337368H81.8924L71.3897 29.7045Z" fill="white"/>
</svg>
