<svg width="32" height="32" viewBox="0 0 32 32" fill="none" xmlns="http://www.w3.org/2000/svg">
<path d="M16 13.3333V18.6667H18.6667M6 18C6 19.9778 6.58649 21.9112 7.6853 23.5557C8.78412 25.2002 10.3459 26.4819 12.1732 27.2388C14.0004 27.9957 16.0111 28.1937 17.9509 27.8079C19.8907 27.422 21.6725 26.4696 23.0711 25.0711C24.4696 23.6725 25.422 21.8907 25.8079 19.9509C26.1937 18.0111 25.9957 16.0004 25.2388 14.1732C24.4819 12.3459 23.2002 10.7841 21.5557 9.6853C19.9112 8.58649 17.9778 8 16 8C13.3478 8 10.8043 9.05357 8.92893 10.9289C7.05357 12.8043 6 15.3478 6 18V18ZM16 8V4V8ZM12 4H20H12Z" stroke="#585585" stroke-width="2" stroke-linecap="round" stroke-linejoin="round"/>
</svg>
